<svg width="15" height="15" viewBox="0 0 15 15" fill="none" xmlns="http://www.w3.org/2000/svg">
<path d="M6.85355 9.14645L7.20711 9.5L6.5 10.2071L6.14645 9.85355L6.85355 9.14645ZM4.5 7.5L4.14645 7.85355L3.79289 7.5L4.14645 7.14645L4.5 7.5ZM6.14645 5.14645L6.5 4.79289L7.20711 5.5L6.85355 5.85355L6.14645 5.14645ZM6.14645 9.85355L4.14645 7.85355L4.85355 7.14645L6.85355 9.14645L6.14645 9.85355ZM4.14645 7.14645L6.14645 5.14645L6.85355 5.85355L4.85355 7.85355L4.14645 7.14645ZM4.5 7H11V8H4.5V7ZM7.5 14C11.0899 14 14 11.0899 14 7.5H15C15 11.6421 11.6421 15 7.5 15V14ZM1 7.5C1 11.0899 3.91015 14 7.5 14V15C3.35786 15 0 11.6421 0 7.5H1ZM7.5 1C3.91015 1 1 3.91015 1 7.5H0C0 3.35786 3.35786 0 7.5 0V1ZM7.5 0C11.6421 0 15 3.35786 15 7.5H14C14 3.91015 11.0899 1 7.5 1V0Z" fill="#05254C"/>
</svg>
