<svg width="37" height="37" viewBox="0 0 37 37" fill="none" xmlns="http://www.w3.org/2000/svg">
<path d="M18.4989 4.33521C17.9003 4.33521 17.4149 4.82054 17.4149 5.41919C17.4149 6.01784 17.9003 6.50317 18.4989 6.50317C22.0857 6.50317 25.0039 9.42083 25.0039 13.0071C25.0039 13.6057 25.4892 14.0911 26.0879 14.0911C26.6865 14.0911 27.1719 13.6057 27.1719 13.0071C27.1719 8.22541 23.2812 4.33521 18.4989 4.33521Z" fill="#5738B1"/>
<path d="M15.7058 0.291231C10.8084 1.31458 6.83739 5.24757 5.7925 10.1754C4.91021 14.3366 5.99744 18.5143 8.77541 21.6373C10.1334 23.1637 10.9121 25.1787 10.9121 27.1712V29.3391C10.9121 30.7815 11.8564 32.007 13.159 32.4314C13.5874 34.9625 15.7843 36.9992 18.5 36.9992C21.2149 36.9992 23.4124 34.9631 23.8409 32.4314C25.1436 32.007 26.0879 30.7816 26.0879 29.3391V27.1711C26.0879 25.1747 26.8692 23.184 28.2878 21.5655C30.3643 19.1966 31.5078 16.1572 31.5078 13.0071C31.5078 4.80025 23.9958 -1.44069 15.7058 0.291231ZM18.5 34.8313C17.1066 34.8313 15.8848 33.8725 15.4337 32.5839H21.5662C21.1151 33.8725 19.8934 34.8313 18.5 34.8313ZM23.9199 29.3391C23.9199 29.9368 23.4336 30.4231 22.8359 30.4231H14.164C13.5663 30.4231 13.0801 29.9368 13.0801 29.3391V28.2551H23.9199V29.3391ZM26.6575 20.1366C25.1457 21.8614 24.2155 23.9412 23.9795 26.0872H13.0207C12.7849 23.94 11.8572 21.8398 10.3954 20.1964C8.08014 17.5936 7.17545 14.105 7.91335 10.6251C8.77468 6.5628 12.0845 3.26279 16.1493 2.41346C23.0886 0.963301 29.3398 6.17452 29.3398 13.0071C29.3398 15.6312 28.3872 18.1632 26.6575 20.1366Z" fill="#5738B1"/>
<path d="M3.25195 13.0071H1.08398C0.485336 13.0071 0 13.4924 0 14.0911C0 14.6897 0.485336 15.175 1.08398 15.175H3.25195C3.8506 15.175 4.33594 14.6897 4.33594 14.0911C4.33594 13.4924 3.8506 13.0071 3.25195 13.0071Z" fill="#5738B1"/>
<path d="M3.70094 7.58716L2.16797 6.05419C1.74471 5.63086 1.05834 5.63086 0.635004 6.05419C0.211672 6.47753 0.211672 7.16383 0.635004 7.58716L2.16797 9.12014C2.59123 9.54347 3.27761 9.54354 3.70094 9.12014C4.12428 8.6968 4.12428 8.0105 3.70094 7.58716Z" fill="#5738B1"/>
<path d="M3.70094 19.062C3.27761 18.6387 2.59123 18.6387 2.16797 19.062L0.635004 20.595C0.211672 21.0183 0.211672 21.7046 0.635004 22.1279C1.05826 22.5513 1.74464 22.5513 2.16797 22.1279L3.70094 20.595C4.12428 20.1716 4.12428 19.4853 3.70094 19.062Z" fill="#5738B1"/>
<path d="M35.916 13.0071H33.748C33.1494 13.0071 32.6641 13.4924 32.6641 14.0911C32.6641 14.6897 33.1494 15.175 33.748 15.175H35.916C36.5147 15.175 37 14.6897 37 14.0911C37 13.4924 36.5147 13.0071 35.916 13.0071Z" fill="#5738B1"/>
<path d="M36.365 6.05419C35.9418 5.63086 35.2554 5.63086 34.832 6.05419L33.2991 7.58716C32.8757 8.01049 32.8757 8.6968 33.2991 9.12013C33.7223 9.54339 34.4087 9.54346 34.832 9.12013L36.365 7.58716C36.7883 7.16383 36.7883 6.47752 36.365 6.05419Z" fill="#5738B1"/>
<path d="M36.365 20.595L34.832 19.062C34.4088 18.6387 33.7224 18.6387 33.2991 19.062C32.8757 19.4853 32.8757 20.1716 33.2991 20.595L34.832 22.1279C35.2553 22.5512 35.9417 22.5513 36.365 22.1279C36.7883 21.7046 36.7883 21.0183 36.365 20.595Z" fill="#5738B1"/>
</svg>
