<svg width="64" height="56" viewBox="0 0 64 56" fill="none" xmlns="http://www.w3.org/2000/svg">
<path fill-rule="evenodd" clip-rule="evenodd" d="M46.526 0.112728C46.2398 0.280069 45.7896 1.21392 45.5145 2.21093C45.387 2.67311 45.1208 3.89489 44.9229 4.92612C44.484 7.21382 44.1217 8.39528 43.4429 9.75404C42.1634 12.3147 40.6138 14.2236 37.4199 17.1733C33.2514 21.0233 32.5474 21.7108 32.4687 22.0093C32.4251 22.1743 32.4046 22.3883 32.4233 22.485C32.4577 22.6645 33.128 23.4224 33.2524 23.4224C33.2901 23.4224 33.4208 23.251 33.5427 23.0416C34.0451 22.1785 36.2543 19.7047 38.4878 17.5046C39.7964 16.2155 41.2582 14.7152 41.7362 14.1705C43.2998 12.3895 44.5461 10.2458 45.2482 8.12974C45.4406 7.54967 45.7386 6.37406 45.9104 5.5172C46.0822 4.66034 46.3028 3.76388 46.4006 3.52505C46.6035 3.02924 47.1273 2.42456 47.2745 2.51597C47.3289 2.5496 47.3733 3.68149 47.3733 5.03124C47.3733 6.44262 47.4188 7.48522 47.4805 7.48522C47.5394 7.48522 47.8559 7.34987 48.1841 7.18428C48.5122 7.01882 48.959 6.85429 49.1769 6.81878C49.5007 6.76605 49.6306 6.81199 49.8873 7.06968C50.1907 7.37436 50.1995 7.42006 50.1461 8.40196C50.1072 9.11667 49.9644 9.82998 49.6655 10.8025C49.4316 11.5636 49.2403 12.2665 49.2403 12.3646C49.2403 12.506 49.3185 12.5242 49.6195 12.4525C50.019 12.3573 50.5041 12.3482 50.5898 12.4342C50.6177 12.4623 50.5171 13.0478 50.3663 13.7352C50.2153 14.4226 50.1347 14.9851 50.187 14.9851C50.4422 14.9851 51.1796 14.1494 51.4715 13.5293C51.9161 12.5852 52.0094 11.911 51.7506 11.5142C51.5696 11.2368 51.4961 11.2129 50.9789 11.2628C50.5089 11.3082 50.4073 11.2845 50.4085 11.13C50.4093 11.0267 50.5661 10.283 50.7572 9.47737C51.1289 7.90919 51.1981 6.67839 50.9548 5.96181C50.8415 5.6283 50.75 5.54603 50.4655 5.52131C50.2729 5.50466 49.8004 5.59127 49.4153 5.71361L48.7152 5.93626L48.6527 4.51351C48.6038 3.40283 48.5165 2.85276 48.2548 2.00609C48.0243 1.26044 47.7948 0.774943 47.5206 0.453386C47.1136 -0.0241451 46.8907 -0.10055 46.526 0.112728ZM37.2493 1.1865C37.1845 1.26712 36.9864 1.70211 36.8092 2.15328C36.4104 3.16799 35.3889 5.25893 34.9547 5.94927C34.5893 6.53027 34.479 6.47402 34.3538 5.6433C34.276 5.12639 34.0197 4.79112 33.8441 4.97651C33.7888 5.0351 33.6115 5.58388 33.4501 6.19618C33.0589 7.68127 32.9606 7.91564 32.6627 8.07572C32.2821 8.28032 31.2909 8.11099 30.6244 7.72767C29.4978 7.07976 27.8377 5.13764 26.6271 3.05115C26.2707 2.43698 25.9686 2.09469 25.7828 2.09469C25.7411 2.09469 25.6731 3.0835 25.632 4.29191C25.5659 6.23344 25.388 8.03189 25.247 8.18106C25.1723 8.26005 24.1533 7.22026 24.1533 7.06499C24.1533 6.98964 24.0752 6.86284 23.9797 6.78328C23.6752 6.52945 23.6585 6.90656 23.9012 8.55688C24.1132 9.99826 24.1165 10.1336 23.9418 10.2707C23.6202 10.5233 22.8837 10.6654 22.3093 10.5857C21.5039 10.474 20.0589 10.0033 19.2246 9.58084C18.2996 9.11234 16.0478 7.67775 15.5439 7.2355C15.3331 7.05058 15.1099 6.89929 15.048 6.89929C14.9062 6.89929 14.9004 7.28389 15.0399 7.43248C15.2433 7.64893 16.4301 10.489 16.7888 11.6174C17.1155 12.6452 17.2312 13.2273 17.1088 13.2273C17.0467 13.2273 16.0983 12.7718 15.7521 12.5756C15.4203 12.3877 15.052 12.3551 15.052 12.5136C15.052 12.5724 15.2749 12.9019 15.5474 13.2461C16.2546 14.1395 16.8023 15.0848 16.8023 15.412C16.8023 15.6194 16.6588 15.7848 16.2566 16.0409C15.9565 16.2321 15.5233 16.4224 15.2939 16.4639C15.0646 16.5053 14.8459 16.5567 14.8078 16.578C14.7698 16.5993 14.8081 17.0802 14.8928 17.6466C15.1201 19.1646 15.0944 20.4464 14.8246 21.0431C14.6504 21.4284 14.4692 21.6025 13.9872 21.8479C13.3772 22.1584 13.3744 22.1622 13.6578 22.3084C14.3997 22.691 14.3911 22.6964 14.9906 21.462C15.3087 20.8066 15.6397 19.8966 15.7645 19.3338C15.8843 18.793 16.1147 18.1241 16.2762 17.8473C16.7191 17.0882 17.5081 16.6062 17.6524 17.0065C17.6835 17.0926 18.181 16.6888 18.8583 16.0279C19.4923 15.4091 20.4408 14.5844 20.9661 14.1954C24.8513 11.3177 29.9937 9.74994 34.7715 9.98666C37.0714 10.1006 39.0612 10.4963 41.1493 11.2552L42.1546 11.6205L42.3726 11.3399C42.7368 10.8714 43.9 8.42833 43.8371 8.26403C43.8048 8.17942 43.855 7.77736 43.9486 7.37037C44.0633 6.87163 44.0803 6.59203 44.0007 6.51211C43.848 6.35871 43.6487 6.525 43.2173 7.16565C43.0338 7.43811 42.6842 7.87615 42.4404 8.13923C42.1967 8.40219 41.9175 8.73172 41.8199 8.87164C41.5976 9.19038 41.0734 9.20245 40.4307 8.90363C39.5773 8.50684 39.0728 7.74888 38.4602 5.94235C38.1799 5.11584 37.5719 1.94691 37.5719 1.31212C37.5719 1.01318 37.4325 0.958807 37.2493 1.1865ZM59.9922 1.60848C59.3458 2.2748 58.5307 3.61271 57.2326 6.13758C56.0395 8.45821 55.7268 9.01683 55.0351 10.0633C53.5303 12.3401 51.5188 14.477 49.3641 16.0873C48.699 16.5844 47.5312 17.3618 46.7689 17.8149C45.3146 18.6791 42.4097 20.12 39.8473 21.2481C38.0579 22.0358 36.4652 22.8718 35.3585 23.6041C34.36 24.2647 33.1582 25.5325 32.7494 26.3562C32.25 27.3627 32.3541 28.0629 33.0771 28.5604C33.6705 28.9687 33.8683 28.7969 34.1111 27.6623C34.2391 27.0639 34.4284 26.5675 34.6407 26.2731C34.9523 25.8411 36.4083 24.7643 37.5719 24.105C38.4096 23.6306 39.7487 22.956 43.0561 21.3428C46.3038 19.7584 47.6397 19.0165 49.1819 17.9403C50.6542 16.9128 51.6542 16.0524 52.9741 14.6772C54.6289 12.9531 56.3101 10.5529 57.9296 7.6024C59.0468 5.56689 59.8109 4.55558 60.2314 4.55558C60.4082 4.55558 60.4419 4.65648 60.4419 5.1851C60.4419 6.08426 59.9484 7.91611 59.3377 9.28366C59.0491 9.92994 58.8251 10.4698 58.8398 10.4833C58.8546 10.4969 59.5493 10.3561 60.3835 10.1705C61.2178 9.98502 61.9883 9.83221 62.0955 9.83104C62.3613 9.82811 62.5838 10.5481 62.5129 11.181C62.4336 11.8875 61.8595 13.0596 60.9446 14.3828C59.926 15.8557 59.275 16.8364 59.275 16.898C59.275 16.9251 59.4976 16.983 59.7697 17.0267C60.4315 17.133 60.7926 17.4858 60.7894 18.023C60.7841 18.8731 60.0301 20.0934 58.1559 22.285L56.9474 23.6982L57.5537 23.9411C57.9249 24.0899 58.2196 24.2977 58.3138 24.4771C58.5118 24.8539 58.4049 25.994 58.1081 26.6705C57.7985 27.3764 56.9613 28.2266 55.4611 29.3587L54.1559 30.3438L54.4553 30.9232C54.7422 31.4787 54.7466 31.5154 54.5582 31.8041C54.1747 32.3919 53.1119 32.8409 51.2239 33.2126C50.6784 33.32 50.2115 33.4273 50.1866 33.4511C50.1615 33.4747 50.3322 33.7066 50.5658 33.9663C50.7994 34.2261 50.9905 34.5418 50.9905 34.668C50.9905 34.7942 50.8724 35.0118 50.728 35.1517C50.3756 35.4927 49.2083 36.0196 48.4469 36.1815C47.5703 36.3677 44.9573 36.3431 43.5811 36.1354C42.9394 36.0387 42.073 35.8483 41.6559 35.7125C41.2387 35.5766 40.2313 35.1166 39.417 34.6904C38.6028 34.2641 37.8993 33.9528 37.8537 33.9987C37.7302 34.1228 38.0927 35.4809 38.5753 36.7019C39.3138 38.5702 40.5622 41.0774 41.3727 42.3202C43.1856 45.1 44.3528 46.4563 46.4168 48.1816C47.3185 48.9352 47.9134 49.2898 50.2866 50.4879C52.5094 51.6101 53.0908 51.9511 53.0908 52.1325C53.0908 52.3174 53.0292 52.3508 52.7699 52.3063C52.2903 52.2239 49.1355 51.8985 48.8168 51.8985C48.5593 51.8985 48.5402 51.943 48.5402 52.543C48.5402 53.1825 48.5375 53.1875 48.1864 53.1875C47.6367 53.1875 47.1511 52.9246 46.2648 52.1471C45.8156 51.753 45.4197 51.4304 45.3851 51.4301C45.3504 51.43 45.1707 51.69 44.9858 52.0081C44.8007 52.3262 44.4838 52.676 44.2812 52.7856C43.9754 52.951 43.8444 52.962 43.5074 52.8502C42.9254 52.6573 42.234 51.8888 41.4916 50.6095C41.1361 49.9972 40.8032 49.424 40.7517 49.3358C40.6838 49.2195 40.5553 49.3409 40.2856 49.7766C39.8131 50.5401 39.4455 50.7009 38.82 50.4176C37.6887 49.9053 36.5343 47.8441 35.2846 44.1057C34.8538 42.8166 34.4544 41.7092 34.3971 41.6448C34.2896 41.524 34.3307 41.9566 34.5586 43.344C34.7322 44.4012 35.5851 46.9767 36.1109 48.0317C37.2854 50.3882 38.6138 51.7703 39.9911 52.0689C40.3106 52.1382 40.4099 52.1021 40.6402 51.8331L40.9121 51.5158L41.6966 52.5247C42.1281 53.0796 42.7024 53.6855 42.9727 53.871C43.6147 54.3115 44.2704 54.5196 44.7293 54.4285C44.9321 54.3884 45.3721 54.1664 45.7072 53.9353L46.3164 53.5153L46.8741 53.8382C47.9727 54.4745 48.2445 54.5938 48.5951 54.5938C49.0363 54.5938 49.2293 54.3111 49.3214 53.5302C49.3745 53.0804 49.4354 52.9532 49.5973 52.9532C49.7117 52.9532 50.2596 53.0616 50.815 53.194C51.6912 53.4031 51.9124 53.4168 52.487 53.2979C53.4068 53.1075 54.5487 52.5667 54.7804 52.2115C54.9282 51.985 54.9449 51.859 54.8509 51.6824C54.676 51.3543 54.1808 51.0724 52.4491 50.315C51.6148 49.9501 50.5121 49.4398 49.9987 49.181C48.3864 48.3682 46.7057 47.053 44.8422 45.1458C42.9659 43.2255 41.5322 41.1992 40.5412 39.0667C40.0209 37.9471 39.4389 36.403 39.4389 36.1423C39.4389 36.0345 39.8664 36.16 40.8114 36.5453C41.5664 36.8532 42.4983 37.1772 42.8825 37.2656C43.3671 37.3769 44.3673 37.4238 46.1482 37.4185C48.3103 37.412 48.8971 37.3715 49.8683 37.161C50.5024 37.0236 51.3076 36.7705 51.6575 36.5985C52.2915 36.2871 52.7395 35.7673 52.7403 35.3423C52.7409 35.0958 52.475 34.4855 52.208 34.1207C52.0259 33.8716 52.0312 33.8591 52.3506 33.7871C54.4183 33.3216 55.4393 32.8331 55.7134 32.1785C55.8273 31.9066 55.8273 31.6913 55.7135 31.1439L55.57 30.4529L56.4598 29.8252C58.2013 28.5971 59.2014 27.5004 59.6421 26.3353C59.9233 25.592 59.9574 24.4226 59.7116 23.9472C59.6124 23.7552 59.3685 23.478 59.1697 23.331C58.971 23.1841 58.8083 23.0174 58.8083 22.9608C58.8083 22.9041 59.2993 22.3388 59.8994 21.7046C61.6863 19.8159 62.1485 19.2368 62.5772 18.3489C63.0936 17.2793 63.1885 16.7679 62.9373 16.4078C62.7724 16.1714 62.6682 16.1418 62.12 16.1762C61.7417 16.1998 61.4918 16.1676 61.4919 16.0949C61.4919 16.0286 61.7886 15.4749 62.1511 14.8645C63.3435 12.8565 63.7999 11.8934 63.8856 11.2049C64.0048 10.2466 63.8648 9.63393 63.4135 9.13917C63.0475 8.73805 62.988 8.71566 62.2887 8.71566C61.8827 8.71566 61.4122 8.75469 61.2435 8.80226L60.9365 8.88886L61.216 7.92372C61.8033 5.89466 62.0492 3.7845 61.8473 2.50483C61.7762 2.05367 61.6225 1.5527 61.5059 1.39157C61.3736 1.20876 61.1555 1.08478 60.9259 1.06181C60.6156 1.03088 60.4691 1.11677 59.9922 1.60848ZM46.5385 6.11368C45.9079 6.69644 45.8577 6.78667 45.4098 8.14392C44.9512 9.5335 44.3759 10.8108 43.7851 11.7508C43.6228 12.0089 43.5419 12.2377 43.6055 12.2589C43.6692 12.2802 44.1885 12.5647 44.7596 12.8912C45.8896 13.537 47.0761 14.4062 48.1884 15.403C48.5793 15.7532 48.9528 16.0398 49.0183 16.0398C49.0839 16.0398 49.3783 15.8552 49.6725 15.6296C50.0062 15.3737 50.1322 15.2195 50.0076 15.2195C49.8714 15.2195 49.8279 15.1543 49.8706 15.0144C50.0404 14.4579 50.4066 12.7191 50.3632 12.6754C50.3359 12.6481 50.0476 12.761 49.7225 12.9265C49.3973 13.092 49.0291 13.2273 48.904 13.2273C48.779 13.2273 48.465 12.9859 48.2065 12.6907C47.8569 12.2919 47.7009 11.9836 47.5988 11.4896C47.4714 10.8734 47.5039 9.6692 47.6786 8.53989C47.7319 8.19536 47.7003 8.11099 47.4813 8.01255C47.2334 7.90111 47.2218 7.83595 47.2452 6.69421C47.2589 6.03352 47.2539 5.49552 47.2341 5.49845C47.2144 5.50138 46.9014 5.77829 46.5385 6.11368ZM47.5484 7.71959C47.5087 7.78404 47.5582 7.83677 47.6582 7.83677C47.7582 7.83677 47.8401 7.78404 47.8401 7.71959C47.8401 7.65514 47.7907 7.6024 47.7303 7.6024C47.6698 7.6024 47.588 7.65514 47.5484 7.71959ZM3.9257 9.33089C3.83538 9.50807 3.58533 10.075 3.36993 10.5906C2.93132 11.6407 2.89293 12.2152 3.19269 13.2437C3.41322 14.0001 3.67529 14.3992 3.95195 14.3992C4.39838 14.3992 5.17561 13.2127 5.31901 12.3119C5.36849 12.0008 5.32485 11.6333 5.18914 11.2171C4.97783 10.5698 4.23887 9.00863 4.14366 9.00863C4.11402 9.00863 4.01589 9.1537 3.9257 9.33089ZM52.1185 11.5477C52.0757 11.5906 52.0423 11.8148 52.0442 12.0457C52.0473 12.4187 52.0625 12.4395 52.1798 12.2312C52.2523 12.1023 52.382 11.9547 52.4679 11.9031C52.6975 11.7654 52.658 11.4695 52.4102 11.4695C52.2925 11.4695 52.1612 11.5047 52.1185 11.5477ZM56.2996 12.0223C55.0713 12.527 54.9936 12.5801 54.491 13.2567C53.8259 14.1524 51.9704 16.0405 51.0192 16.7895C50.6184 17.1051 50.2904 17.4056 50.2904 17.4571C50.2904 17.5086 50.5433 17.8862 50.8524 18.2964C52.1322 19.9945 53.287 22.4157 53.8991 24.6841C54.4055 26.5611 54.5938 27.5926 54.6263 28.6665C54.6424 29.1983 54.6893 29.6333 54.7305 29.6333C54.8648 29.6333 56.8247 28.1067 56.8247 28.0022C56.8247 27.9463 56.7394 27.8676 56.6351 27.8274C56.4842 27.7693 56.461 27.6567 56.5214 27.2769C56.6138 26.6968 56.9456 26.0215 57.3917 25.5058C57.5744 25.2945 57.6982 25.0473 57.6667 24.9565C57.6288 24.8466 57.6688 24.8141 57.7864 24.8595C57.8836 24.8969 58.0195 24.8709 58.0885 24.8016C58.3206 24.5685 58.0048 24.2532 57.347 24.0611C56.9955 23.9584 56.708 23.8339 56.708 23.7841C56.708 23.7344 57.1574 23.1712 57.7066 22.5326L58.7053 21.3717L58.0858 21.2859C57.7452 21.2387 57.2897 21.1693 57.0735 21.1316L56.6806 21.0629L57.6277 20.3647C58.5242 19.7039 58.7591 19.4334 58.4291 19.4419C58.3489 19.4439 57.7319 19.5213 57.0581 19.6139C56.3842 19.7065 55.4509 19.7839 54.984 19.7859C54.1648 19.7896 54.1308 19.7784 54.0101 19.4674C53.8099 18.952 53.9766 17.779 54.3927 16.7753C54.8534 15.6637 56.3125 13.4464 57.2789 12.3891C57.6709 11.9602 57.9915 11.5779 57.9915 11.5395C57.9915 11.3857 57.5243 11.5191 56.2996 12.0223ZM7.22515 12.6859C6.44979 13.2973 5.91667 13.9226 5.58377 14.6114C5.25344 15.2948 5.3231 16.1941 5.75716 16.853C6.0211 17.2534 6.13323 17.3288 6.46543 17.3288C6.77441 17.3288 6.94231 17.2347 7.23904 16.8953C7.86248 16.1821 8.03995 15.6297 8.12478 14.1385C8.19841 12.8449 8.1424 12.1725 7.96131 12.1728C7.9144 12.1728 7.58314 12.4037 7.22515 12.6859ZM51.6211 13.7253L51.429 14.1062L51.7932 13.762C51.9934 13.5728 52.1574 13.4013 52.1574 13.3812C52.1574 13.361 52.08 13.3445 51.9854 13.3445C51.8907 13.3445 51.7268 13.5159 51.6211 13.7253ZM49.707 13.8132C49.707 13.8777 49.6545 13.9304 49.5903 13.9304C49.5261 13.9304 49.4736 13.8777 49.4736 13.8132C49.4736 13.7488 49.5261 13.696 49.5903 13.696C49.6545 13.696 49.707 13.7488 49.707 13.8132ZM3.89169e-07 14.2527C0.000117073 14.7201 0.607921 15.9205 1.06497 16.356C1.28142 16.5623 1.66846 16.8206 1.92516 16.93C2.18186 17.0395 2.86446 17.1899 3.44204 17.2643C4.30982 17.3763 4.51308 17.3719 4.61249 17.24C4.70631 17.1154 4.97655 17.3671 5.83767 18.3814L6.94255 19.6825L9.4244 21.201C10.7894 22.036 12.0133 22.7193 12.1441 22.7193C12.4097 22.7193 14.7561 23.6601 16.8023 24.5871C19.1678 25.6587 20.3118 26.5103 20.8748 27.6186C21.0024 27.8699 21.2447 28.6236 21.413 29.2938C21.5815 29.9639 21.755 30.5449 21.7987 30.5848C21.8423 30.6248 22.0549 30.5825 22.2712 30.4908L22.6645 30.3242L22.6134 29.3049C22.5795 28.63 22.4905 28.1482 22.3497 27.8789C22.2327 27.6552 21.8439 27.1542 21.4857 26.7656C21.1275 26.377 20.7062 25.9153 20.5495 25.7397L20.2646 25.4203L20.7796 25.1856C21.4715 24.8704 22.2794 24.8731 22.6829 25.1918C23.1457 25.5573 23.5718 26.5023 23.8116 27.6948C23.9287 28.2776 24.1076 29.8354 24.2091 31.1567C24.5358 35.4113 24.6999 36.2826 25.4448 37.7206C25.7048 38.2225 26.3268 39.1261 26.8273 39.7288C28.907 42.2334 31.5 43.87 33.9363 44.2158L34.4431 44.2877L34.3603 43.7866C34.2083 42.8644 34.0068 42.6719 32.7296 42.2273C31.4603 41.7855 30.5419 41.315 29.6267 40.6375C27.7044 39.2144 26.5752 37.4212 25.893 34.7079C25.7093 33.9777 25.3713 32.023 25.1417 30.3642C24.9121 28.7054 24.6488 27.0175 24.5566 26.6133C24.3355 25.644 24.0104 25.0265 23.5469 24.695C23.246 24.4799 23.0124 24.4238 22.4066 24.4214C21.9875 24.4198 21.4609 24.4581 21.2363 24.5064L20.8279 24.5944L21.2946 24.183L21.7613 23.7717L20.857 24.1763C20.3596 24.3988 19.9527 24.5642 19.9527 24.5437C19.9527 24.523 20.0764 24.2228 20.2275 23.8764C20.3788 23.53 20.6232 22.8775 20.7708 22.4264C20.9185 21.9752 21.1575 21.4172 21.302 21.1862C21.6419 20.6429 22.2119 20.1639 22.8698 19.8686C23.5406 19.5675 24.8834 19.5482 25.8074 19.8263C27.262 20.2641 29.2108 21.9781 31.2617 24.6236C31.7989 25.3165 32.2701 25.8803 32.3089 25.8767C32.4499 25.8634 33.488 24.4948 33.488 24.3223C33.488 24.0033 31.7264 22.2556 30.4055 21.264C28.9029 20.1361 27.7607 19.429 26.8455 19.0602C26.2952 18.8385 25.9713 18.798 24.7368 18.796C23.3814 18.7937 23.229 18.8168 22.5819 19.1211C21.6122 19.5771 20.6951 20.3016 20.4335 20.8183C20.312 21.0582 20.1051 21.7973 19.9737 22.4608C19.7264 23.7101 19.4322 24.3918 19.114 24.4534C19.0126 24.473 17.5977 23.9934 15.9699 23.3875C14.342 22.7817 12.6688 22.1674 12.2516 22.0224C11.2736 21.6826 9.79895 20.895 8.39782 19.9643C6.90159 18.9703 5.69333 17.6827 4.77784 16.1067C4.38216 15.4254 4.03678 14.8679 4.01053 14.8679C3.93293 14.8679 4.10632 15.5 4.22581 15.6528C4.29523 15.7415 4.28998 15.8708 4.21157 16.0044C4.09559 16.2017 4.08287 16.199 4.01648 15.9624C3.96292 15.7715 3.47483 15.4907 2.03076 14.8199C0.977691 14.3307 0.0899633 13.9304 0.057992 13.9304C0.0260208 13.9304 -0.000116294 14.0755 3.89169e-07 14.2527ZM9.5398 14.7214C9.37189 14.8986 9.08812 15.3337 8.90913 15.6882C8.66036 16.1805 8.58346 16.4988 8.58335 17.0358C8.58323 17.6371 8.65557 17.8773 9.08287 18.6946C9.69592 19.8675 10.2671 20.5632 10.5328 20.4608C10.6372 20.4206 10.8164 20.2135 10.9313 20.0007C11.0873 19.7116 11.1403 19.3477 11.1415 18.5592C11.143 17.61 11.1051 17.424 10.7629 16.6981C10.5537 16.2546 10.3534 15.6745 10.318 15.4091C10.2057 14.5711 10.151 14.3992 9.99592 14.3992C9.91284 14.3992 9.70759 14.5442 9.5398 14.7214ZM49.7245 14.6921C49.7245 14.7533 49.668 14.8223 49.5991 14.8454C49.5301 14.8685 49.4736 14.7996 49.4736 14.6921C49.4736 14.5847 49.5301 14.5158 49.5991 14.5388C49.668 14.5619 49.7245 14.631 49.7245 14.6921ZM13.7787 15.7139C13.302 16.1819 12.8468 16.8427 12.4293 17.6729C12.1683 18.192 12.1098 18.463 12.1127 19.1377C12.117 20.0924 12.4618 21.3199 12.8674 21.824L13.1369 22.1592L13.5782 21.8584C13.8209 21.693 14.1155 21.5271 14.2328 21.4897C14.3501 21.4523 14.5265 21.2516 14.6246 21.0437C14.9513 20.3525 14.9701 19.5822 14.7069 17.6792C14.4274 15.6593 14.3638 15.3366 14.2447 15.3366C14.1997 15.3366 13.99 15.5064 13.7787 15.7139ZM8.00005 16.1108C7.94614 16.3262 7.97823 16.4855 8.09981 16.6078C8.19829 16.7065 8.30471 16.7615 8.33644 16.7297C8.36807 16.6979 8.40867 16.4922 8.42664 16.2725C8.45068 15.9802 8.40844 15.8625 8.26935 15.8334C8.14368 15.8071 8.05244 15.901 8.00005 16.1108ZM10.8514 16.3795C10.8514 16.4081 10.9894 16.7778 11.158 17.2009C11.4276 17.8779 11.4557 18.074 11.3918 18.8329C11.3286 19.5845 11.3492 19.7337 11.552 19.9928C11.6801 20.1562 11.7849 20.3357 11.7849 20.3914C11.7849 20.4472 11.6036 20.4928 11.382 20.4928C11.1604 20.4928 10.844 20.5547 10.6787 20.6303C10.449 20.7354 10.3462 20.7354 10.2415 20.6303C10.0744 20.4625 9.91797 20.452 9.91797 20.6087C9.91797 20.7332 11.5515 21.5924 12.2772 21.8495L12.7177 22.0056L12.4954 21.568C12.0836 20.7574 11.8743 19.8072 11.9217 18.9641C11.9574 18.3304 12.0532 18.0003 12.3887 17.3553L12.8108 16.5437L11.8311 16.4355C11.2923 16.3761 10.8514 16.3508 10.8514 16.3795ZM16.8709 17.3881C16.6974 17.5496 16.4202 17.9784 16.2549 18.3408C16.0322 18.8294 15.9395 19.2631 15.8967 20.0166C15.8283 21.2226 16.0319 22.0734 16.5666 22.8147C17.1915 23.6811 17.6598 23.4101 18.1491 21.899C18.2639 21.5445 18.3562 20.9645 18.3542 20.61C18.3508 19.9819 17.8522 17.7664 17.6136 17.3184C17.5479 17.1952 17.4249 17.0944 17.3403 17.0944C17.2557 17.0944 17.0444 17.2266 16.8709 17.3881ZM1.67534 19.3804C1.63415 19.4883 1.68608 19.7572 1.79097 19.9781C2.0059 20.4307 2.83914 21.0147 3.55698 21.2157C4.40305 21.4527 6.22681 21.324 7.44919 20.9413L7.83902 20.819L7.44919 20.411C7.23472 20.1865 6.74418 19.8369 6.35913 19.6341C5.66755 19.2697 5.63511 19.2648 3.7047 19.2246C1.96133 19.1884 1.74232 19.2052 1.67534 19.3804ZM11.8724 21.3814C11.7612 21.4931 11.5382 21.3123 11.6212 21.1776C11.6704 21.0976 11.7357 21.0996 11.8194 21.1837C11.8882 21.2528 11.912 21.3417 11.8724 21.3814ZM23.0528 21.3851C22.4865 22.02 22.385 22.1544 22.4342 22.2037C22.5412 22.3112 24.0786 22.0208 24.17 21.8759C24.223 21.7919 24.2672 21.6112 24.2683 21.4742C24.2696 21.2885 24.1774 21.2066 23.9054 21.152C23.372 21.0449 23.351 21.0506 23.0528 21.3851ZM59.6818 22.2187L59.0122 22.9705L59.4062 23.3031C59.7951 23.6316 59.8047 23.6333 60.1502 23.4319C60.7733 23.0688 62.1214 22.3115 62.6005 22.0555C63.3977 21.6295 63.2206 21.5172 61.7093 21.4906L60.3513 21.4668L59.6818 22.2187ZM60.4419 21.899C60.4419 21.9635 60.3894 22.0162 60.3252 22.0162C60.261 22.0162 60.2085 21.9635 60.2085 21.899C60.2085 21.8346 60.261 21.7818 60.3252 21.7818C60.3894 21.7818 60.4419 21.8346 60.4419 21.899ZM8.74694 22.6979C8.39175 22.8161 7.33017 23.3242 6.38807 23.8271C4.89499 24.6241 4.68927 24.7683 4.78647 24.9507C4.84773 25.0657 5.14795 25.2567 5.45355 25.3751C5.89321 25.5455 6.31327 25.5881 7.46762 25.5799C9.06537 25.5686 9.53642 25.4506 10.5237 24.8143C11.094 24.4468 11.8459 23.543 11.9191 23.1372C11.9515 22.9572 11.852 22.8786 11.4349 22.7548C11.1461 22.6692 10.5685 22.573 10.1513 22.5411C9.60118 22.4989 9.21554 22.5419 8.74694 22.6979ZM12.028 23.5499C11.8087 23.8745 11.407 24.3366 11.1351 24.577C10.5617 25.0838 9.59488 25.5797 8.92616 25.7098C8.66946 25.7598 7.5668 25.8102 6.47581 25.8219C5.38482 25.8336 4.40036 25.8842 4.288 25.9344C3.95195 26.0845 4.05557 26.3248 4.52137 26.4754C6.11794 26.9917 8.6949 28.0838 9.67259 28.6586C10.042 28.8758 10.14 28.9846 10.0226 29.0475C9.93302 29.0955 9.43957 29.2258 8.92616 29.337C7.95932 29.5463 7.70402 29.6661 7.92805 29.8052C7.99993 29.8497 8.68194 30.0133 9.44377 30.1685C11.2933 30.5453 11.435 30.6051 11.4342 31.0073C11.4318 32.1884 10.5258 33.2469 8.20973 34.7743C6.55306 35.8668 5.62741 36.4123 5.07573 36.6212C4.8832 36.694 4.72556 36.8223 4.72556 36.9059C4.72556 37.0254 5.27736 37.0633 7.2926 37.0819C9.55322 37.1028 11.1493 37.2285 11.8203 37.4385C11.9973 37.494 12.0065 37.5338 11.8786 37.6901C11.7949 37.7922 11.3458 38.159 10.8806 38.5051C10.4154 38.8513 10.0347 39.1907 10.0347 39.2594C10.0347 39.3356 10.2051 39.3622 10.4722 39.3278C10.7129 39.2969 11.584 39.1818 12.4081 39.0722C13.2321 38.9628 13.9295 38.8963 13.9578 38.9247C13.986 38.9531 14.0395 39.2339 14.0766 39.5488C14.1285 39.989 14.0719 40.3382 13.832 41.0589C13.4949 42.0715 12.7282 43.4865 11.9586 44.5158C11.6937 44.8703 11.1541 45.5933 10.7596 46.1227C10.3652 46.6519 10.086 47.112 10.1392 47.145C10.1924 47.178 10.5977 47.0266 11.0396 46.8087C11.4816 46.5907 12.4996 46.1932 13.3018 45.9252C14.7783 45.4321 16.8094 44.8674 17.1067 44.8674C17.196 44.8674 17.269 44.9281 17.269 45.0021C17.269 45.0763 17.004 45.5519 16.6801 46.059C16.3561 46.5661 16.1242 47.035 16.1649 47.1008C16.2538 47.2454 16.638 47.138 17.0357 46.8573C17.5481 46.4957 19.6452 45.4659 19.7441 45.5273C19.9519 45.6563 20.3244 46.5653 20.4264 47.1926C20.5715 48.0854 20.2912 50.4745 19.8263 52.3087C19.6302 53.0821 19.4603 53.794 19.4487 53.8907C19.4005 54.2939 19.9496 53.9242 21.1161 52.768C22.3069 51.5877 23.8807 50.2892 24.5282 49.9523L24.8448 49.7876L24.7803 50.5794C24.7447 51.0149 24.6622 51.5474 24.597 51.7628C24.5107 52.0471 24.5159 52.1917 24.6156 52.2901C24.7703 52.443 24.799 52.4132 26.0203 50.834C26.9809 49.5918 27.1351 49.4376 27.4164 49.4376C27.8081 49.4376 28.4254 50.1036 28.9217 51.0617C29.3889 51.9637 29.8618 53.5677 30.0928 55.0342C30.1562 55.4374 30.2404 55.8198 30.2798 55.8838C30.3191 55.9476 30.5762 56 30.8511 56H31.3508L31.6599 55.209C31.9884 54.3683 33.5629 51.547 33.7036 51.547C33.7495 51.547 33.8585 51.7974 33.9458 52.1036C34.0329 52.4098 34.176 52.8791 34.2636 53.1468C34.3512 53.4143 34.3939 53.7091 34.3586 53.8018C34.3231 53.8944 34.3717 54.0349 34.4664 54.1138C34.6058 54.23 34.6596 54.2169 34.7496 54.0448C34.8106 53.9278 34.8976 53.6475 34.9426 53.4219C35.0816 52.7263 35.4828 51.3992 35.7309 50.8145C36.0168 50.1407 36.2016 50.1124 37.1558 50.5958L37.8229 50.9337L37.5348 50.6251C37.3764 50.4554 37.011 49.9484 36.7229 49.4987L36.1993 48.6807L33.8227 48.6645C32.1665 48.6532 31.1277 48.5892 30.3959 48.4533C26.0473 47.6459 23.0368 46.1543 19.2726 42.9427C17.415 41.3578 15.802 39.0237 14.5911 36.1684C13.56 33.7369 13.2457 32.2222 13.2444 29.6797L13.2434 27.7925L12.8351 28.0462C12.073 28.5198 11.7046 28.612 10.8198 28.5507C9.94481 28.4901 9.04355 28.199 8.94682 27.9458C8.91613 27.8655 9.61261 27.1182 10.4945 26.285C11.9176 24.9405 12.1952 24.7313 12.9624 24.4254C14.275 23.902 14.3249 23.6944 13.2422 23.2591C12.8244 23.0912 12.47 22.9551 12.4546 22.9567C12.4393 22.9584 12.2472 23.2253 12.028 23.5499ZM12.9517 24.6166C12.2632 24.9089 11.9025 25.1622 11.2598 25.8046C10.8106 26.2536 10.1412 26.8848 9.77223 27.2072C9.27295 27.6433 9.13246 27.8307 9.22289 27.9401C9.42382 28.1833 10.922 28.4988 11.4632 28.4118C12.2004 28.2935 13.0296 27.7797 13.7199 27.0137C14.4705 26.1805 15.3203 24.8049 15.2648 24.5125C15.2322 24.3411 15.0933 24.2961 14.5258 24.2732C13.9618 24.2505 13.6579 24.3168 12.9517 24.6166ZM10.7348 25.4215C10.7348 25.4822 10.6822 25.5318 10.6181 25.5318C10.5539 25.5318 10.5014 25.4495 10.5014 25.3491C10.5014 25.2487 10.5539 25.199 10.6181 25.2388C10.6822 25.2787 10.7348 25.3608 10.7348 25.4215ZM57.8283 28.9864C57.5138 29.2694 56.9212 29.7284 56.5113 30.0065C55.8846 30.4317 55.7762 30.5541 55.8308 30.7759C55.8665 30.921 55.928 31.2759 55.9674 31.5647C56.0283 32.0117 55.9946 32.1482 55.74 32.4833C55.5756 32.6999 55.1475 33.0305 54.7886 33.218C54.2228 33.5138 54.1201 33.6212 54.0154 34.0277C53.5607 35.7949 52.7444 37.6657 51.7799 39.1513C50.902 40.5035 49.5 42.1493 48.4852 43.0191C48.0135 43.4233 47.1277 44.1233 46.5168 44.5744C45.9058 45.0256 45.4061 45.4211 45.4062 45.4533C45.4066 45.5573 47.1703 47.078 48.1318 47.8035C48.9597 48.4283 51.412 49.7523 52.1338 49.9641L52.4019 50.0429L52.2034 49.5938C51.7574 48.5847 50.8607 45.7871 50.8952 45.5123L50.9322 45.2173L51.6323 45.5618C52.0173 45.7513 52.4939 46.0147 52.6913 46.1472C52.9911 46.3483 53.0836 46.3634 53.2533 46.2387C53.4404 46.1013 53.4189 46.0422 52.982 45.4909C52.7209 45.1618 52.5074 44.8525 52.5074 44.8037C52.5074 44.7549 52.2415 44.2987 51.9164 43.7899C51.5914 43.2809 51.3428 42.7747 51.3638 42.6649C51.3864 42.5471 51.689 42.3465 52.1007 42.1762C52.7163 41.9216 52.9722 41.8875 54.2577 41.8886C55.3576 41.8897 56.1465 41.9708 57.4665 42.2188C58.4291 42.3996 59.492 42.6392 59.8283 42.7514C60.1646 42.8636 60.4666 42.9285 60.4992 42.8957C60.6713 42.723 60.4593 42.4591 59.4549 41.5964C58.36 40.6559 56.358 38.5111 56.358 38.2789C56.358 38.2052 56.5291 38.1842 56.7955 38.2252C57.0362 38.2622 57.5613 38.3285 57.9624 38.3725C58.5545 38.4374 58.6916 38.4209 58.6916 38.2846C58.6916 38.1924 58.2848 37.8436 57.7873 37.5097C56.4153 36.5883 55.5412 35.8626 55.5412 35.6445C55.5412 35.3212 56.015 34.7272 56.5843 34.3371C56.9172 34.1089 57.6494 33.8171 58.5226 33.5647C59.8883 33.1698 62.5858 32.6801 63.3953 32.6801C63.6163 32.6801 63.8594 32.6046 63.9356 32.5125C64.105 32.3076 64.0166 32.256 62.7172 31.8019C62.2038 31.6225 61.495 31.3512 61.142 31.199C60.0945 30.7474 58.4761 29.932 58.4669 29.8514C58.4621 29.8102 58.8127 29.6867 59.2459 29.5769C59.679 29.4671 60.1506 29.3309 60.2937 29.2744C60.6423 29.1368 60.5129 28.8134 60.1085 28.8116C59.9389 28.8109 59.5113 28.7323 59.1584 28.6372C58.8054 28.542 58.4903 28.466 58.4583 28.4681C58.4262 28.4702 58.1426 28.7034 57.8283 28.9864ZM42.9977 46.6879C41.924 47.2059 39.6386 47.9567 38.3595 48.2116C37.7981 48.3234 37.3386 48.4666 37.3386 48.5298C37.3386 48.5928 37.5208 48.8938 37.7435 49.1984C38.209 49.8353 38.9246 50.3751 39.3034 50.3751C39.584 50.3751 39.8957 50.0834 40.2956 49.4466C40.4341 49.226 40.6007 49.028 40.6659 49.0066C40.7311 48.9852 40.9612 49.2975 41.1772 49.7007C41.3932 50.1038 41.7599 50.7357 41.9921 51.1047L42.4143 51.7757L42.5893 50.879C42.6856 50.3859 42.8169 49.9676 42.881 49.9498C42.9452 49.9319 43.3907 50.3876 43.871 50.9626C44.418 51.6173 44.7853 51.9665 44.8543 51.8972C44.9232 51.828 44.9099 51.4904 44.8188 50.9936C44.7387 50.5574 44.6428 49.6598 44.6055 48.9988L44.5378 47.797H45.0937H45.6497L44.8488 47.0404C44.4083 46.6242 43.9954 46.286 43.9312 46.2887C43.867 46.2915 43.4469 46.4711 42.9977 46.6879ZM39.3263 52.5123C39.6406 52.9041 40.3065 53.8465 40.806 54.6065C41.5941 55.8058 41.7566 55.9892 42.0351 55.9943L42.356 56V54.8278V53.6555L41.6267 52.7148C40.9336 51.8208 40.8895 51.7859 40.7373 52.0121C40.5307 52.3193 39.9033 52.3237 39.2426 52.0224L38.7546 51.8L39.3263 52.5123Z" fill="white"/>
</svg>
