<svg width="37" height="37" viewBox="0 0 37 37" fill="none" xmlns="http://www.w3.org/2000/svg">
<path d="M31.7134 15.8571V6.60711C31.7134 5.87728 31.1217 5.28566 30.3919 5.28566H21.142C21.142 2.36649 18.7755 0 15.8562 0C12.937 0 10.5705 2.36649 10.5705 5.28573H1.32055C0.590724 5.28573 -0.000899135 5.87736 -0.000899135 6.60711V18.2066C-0.000666853 18.9364 0.591111 19.5279 1.32086 19.5276C1.64722 19.5276 1.96196 19.4067 2.20454 19.1884C3.28396 18.2058 4.95546 18.2843 5.93801 19.3637C6.92057 20.4431 6.84206 22.1147 5.76264 23.0972C4.75423 24.0152 3.21296 24.0152 2.20454 23.0972C1.66209 22.6089 0.826568 22.6529 0.33831 23.1953C0.119965 23.4379 -0.000899135 23.7526 -0.000976562 24.079V35.6785C-0.000976562 36.4084 0.590646 37 1.32048 37H12.92C13.6498 36.9998 14.2413 36.4081 14.241 35.6782C14.2409 35.3519 14.1201 35.0371 13.9017 34.7945C12.9192 33.7151 12.9977 32.0436 14.0771 31.0611C15.1565 30.0785 16.828 30.157 17.8106 31.2364C18.7286 32.2449 18.7286 33.7861 17.8106 34.7945C17.3223 35.337 17.3663 36.1725 17.9087 36.6608C18.1513 36.8791 18.466 37 18.7924 37.0001H30.3918C31.1217 37.0001 31.7133 36.4084 31.7133 35.6786V26.4285C34.6325 26.4285 36.999 24.062 36.999 21.1428C36.999 18.2235 34.6326 15.8571 31.7134 15.8571ZM31.7134 23.7857C31.4126 23.7812 31.1149 23.7249 30.8333 23.6192C30.1455 23.3755 29.3902 23.7355 29.1464 24.4234C29.0962 24.5648 29.0706 24.7139 29.0705 24.8639V34.3571H20.9702C21.0844 33.9259 21.1421 33.4817 21.142 33.0356C21.142 30.1164 18.7755 27.7499 15.8562 27.7499C12.937 27.7499 10.5705 30.1164 10.5705 33.0356C10.5703 33.4817 10.6281 33.9259 10.7423 34.3571H2.64193V26.2568C3.07312 26.371 3.51732 26.4287 3.96338 26.4286C6.88263 26.4286 9.24912 24.0621 9.24912 21.1429C9.24912 18.2236 6.88263 15.8571 3.96338 15.8571C3.51732 15.857 3.07312 15.9147 2.64193 16.0289V7.92856H12.1351C12.8649 7.92817 13.4561 7.33617 13.4558 6.60641C13.4557 6.45628 13.43 6.30731 13.3799 6.16577C13.2742 5.88417 13.2178 5.58646 13.2134 5.28573C13.2134 3.82615 14.3966 2.64291 15.8562 2.64291C17.3158 2.64291 18.4991 3.82615 18.4991 5.28573C18.4946 5.58646 18.4383 5.88417 18.3326 6.16577C18.0889 6.85364 18.4489 7.60894 19.1368 7.85268C19.2782 7.90286 19.4273 7.92848 19.5773 7.92856H29.0705V17.4217C29.0708 18.1515 29.6629 18.7428 30.3926 18.7424C30.5427 18.7423 30.6917 18.7166 30.8332 18.6665C31.1148 18.5608 31.4125 18.5044 31.7132 18.5C33.1728 18.5 34.356 19.6833 34.356 21.1429C34.356 22.6024 33.173 23.7857 31.7134 23.7857Z" fill="#5738B1"/>
</svg>
