<svg width="37" height="37" viewBox="0 0 37 37" fill="none" xmlns="http://www.w3.org/2000/svg">
<path d="M19.1364 1.27287C16.2782 1.27287 13.4604 1.96152 10.9351 3.27029L7.98243 0.317438C7.72128 0.0561472 7.34501 -0.0542736 6.98408 0.0243089C6.62315 0.102891 6.32691 0.359696 6.19789 0.705864L4.70685 4.70656L0.706232 6.19753C0.360064 6.32654 0.10326 6.62278 0.0246771 6.98371C-0.0538331 7.34464 0.0565153 7.72084 0.317806 7.98206L3.27058 10.9349C1.96182 13.4601 1.27317 16.2779 1.27317 19.1362C1.27317 28.986 9.28656 36.9995 19.1364 36.9995C28.9863 36.9995 36.9999 28.986 36.9999 19.1362C36.9999 9.28627 28.9863 1.27287 19.1364 1.27287ZM19.1364 25.0152C22.3782 25.0152 25.0156 22.3779 25.0156 19.1362C25.0156 15.8944 22.3782 13.2571 19.1364 13.2571C17.9069 13.2571 16.7649 13.6371 15.8202 14.2849L13.091 11.5558C14.7503 10.2298 16.8523 9.43569 19.1364 9.43569C24.4853 9.43569 28.8369 13.7873 28.8369 19.1362C28.8369 24.485 24.4853 28.8366 19.1364 28.8366C13.7876 28.8366 9.43606 24.485 9.43606 19.1362C9.43606 16.852 10.2301 14.75 11.556 13.0907L14.2852 15.8199C13.6374 16.7646 13.2574 17.9066 13.2574 19.1362C13.2574 22.3779 15.8947 25.0152 19.1364 25.0152ZM19.904 18.3686L17.3974 15.8621C17.9165 15.5853 18.5084 15.4278 19.1364 15.4278C21.1813 15.4278 22.8448 17.0913 22.8448 19.1361C22.8448 21.1808 21.1813 22.8444 19.1364 22.8444C17.0917 22.8444 15.4282 21.1808 15.4282 19.1361C15.4282 18.5079 15.5857 17.9162 15.8625 17.3971L18.369 19.9036C18.5809 20.1155 18.8587 20.2215 19.1364 20.2215C19.4142 20.2215 19.692 20.1155 19.9039 19.9036C20.3278 19.4798 20.3278 18.7925 19.904 18.3686ZM7.64205 3.04699L11.2945 6.69948L10.8249 9.2896L6.81129 5.27603L7.64205 3.04699ZM3.04735 7.64168L5.27639 6.81099L9.29004 10.8246L6.69985 11.2942L3.04735 7.64168ZM19.1364 34.8287C10.4836 34.8287 3.44396 27.7891 3.44396 19.1362C3.44396 16.8583 3.94194 14.6103 4.89267 12.5569L5.5667 13.231C5.77206 13.4364 6.0489 13.5489 6.33415 13.5489C6.39847 13.5489 6.46323 13.5432 6.52778 13.5315L8.91963 13.098C7.8694 14.8682 7.26534 16.9328 7.26534 19.1362C7.26534 25.6819 12.5907 31.0074 19.1365 31.0074C25.6823 31.0074 31.0078 25.6819 31.0078 19.1362C31.0078 12.5904 25.6823 7.2649 19.1365 7.2649C16.9332 7.2649 14.8686 7.86903 13.0983 8.91926L13.5319 6.52741C13.5954 6.17719 13.4831 5.818 13.2314 5.56633L12.5574 4.8923C14.6106 3.94157 16.8587 3.44359 19.1366 3.44359C27.7895 3.44359 34.8291 10.4832 34.8291 19.1361C34.8291 27.7891 27.7893 34.8287 19.1364 34.8287Z" fill="white"/>
</svg>
